The Lucky One 2012 TS Xvid READ NFO UnKnOwN

Encoded By .......:UnKnOwN
Runtime ..........:1:37
IMDb URL .........:http://www.imdb.com/title/tt1327194/
Language .........:English 
File Size ........:1.03gb 
Release Date ......... 2012 
Source       ......... TNZ
File Type    ......... Single AVI 
PS3 Compatible ....... Go For It
Genre        ......... Horror/Thriller

Video
ID                               : 0 
Format                           : MPEG-4 Visual
Format profile                   : Advanced Simple@L5
Format settings, BVOP            : Yes
Format settings, QPel            : No
Format settings, GMC             : No warppoints
Format settings, Matrix          : Custom
Codec ID                         : XVID 
Codec ID/Hint                    : XviD
Duration                         : 1h 37mn
Bit rate                         : 1791kbps
Width                            : 680pixels 
Height                           : 288pixels
Display aspect ratio             : 4:3
Frame rate                       : 23.997fps 
Color space                      : YUV
Chroma subsampling               : 4:2:0
Bit depth                        : 8 bits
Scan type                        : Progressive
Bits/(Pixel*Frame)               : 0.234
Stream size                      : 892 MiB (86%)
Writing library                  : XviD 1.2.1 (UTC 2008-12-04)

Audio
ID                               : 1
Format                           : MP3
Format/Info                      : MPEG
Mode extension                   : CM (complete main)
Codec ID                         : 2000
Duration                         : 1h 37mn
Bit rate mode                    : Constant
Bit rate                         : 128kbps
Channel(s)                       : 2channels
Channel positions                : Front: L R
Sampling rate                    : 48.0 KHz
Bit depth                        : 16 bits
Stream size                      : 302 MiB
Alignment                        : Aligned on interleaves 
Interleave, duration             : 42 ms (1.00 video frame)
Interleave, preload duration     : 512 ms 

SYPNOSIS
A Marine travels to Louisiana after serving three tours in Iraq and
searches for the unknown woman he believes was his good
luck charm during the war.

RELEASE INFO 
Very nice cam by tnz took the 720 source not much needed,slight
sharpen and B-level adjustments,Audio is nice line we synced to
our encode.Read NFO our line cuts of for the last 8 mins so we muxed
cam audio in from hopes rip. Sample Included enjoy.


Poster:

 
http://i.imgur.com/PepJx.jpg


Screens:

 
http://i.imgur.com/Fxar1.png

 
http://i.imgur.com/VwBBO.png

 
http://i.imgur.com/5Aczb.png


ENJOY!